<?xml version="1.0" encoding="utf-8"?>
<!-- Generator: Adobe Illustrator 21.1.0, SVG Export Plug-In . SVG Version: 6.00 Build 0)  -->
<svg version="1.1" id="Layer_1" xmlns="http://www.w3.org/2000/svg" xmlns:xlink="http://www.w3.org/1999/xlink" x="0px" y="0px"
	 viewBox="0 0 159.8 160" style="enable-background:new 0 0 159.8 160;" xml:space="preserve">
<style type="text/css">
	.st0{fill:#CC5200;}
	.st1{display:none;fill:#D8D7DA;}
	.st2{fill:#ED6D15;}
	.st3{display:none;fill:#FFFFFF;}
</style>
<g>
	<path class="st0" d="M81.2,41.8V59c7.3,0,13.2,5.9,13.2,13.2c0,7.3-5.9,13.2-13.2,13.2V122l24.2-30.4c4.3-5.5,6.6-12.1,6.6-19.1
		C112,55.6,98.2,41.8,81.2,41.8z"/>
	<path class="st1" d="M94.4,72.2c0-7.3-5.9-13.2-13.2-13.2v26.4C88.5,85.4,94.4,79.5,94.4,72.2z"/>
	<path class="st2" d="M68,72.2C68,64.9,73.9,59,81.2,59V41.8c-17,0-30.8,13.8-30.8,30.8c0,7,2.3,13.6,6.6,19.1L81.2,122V85.4
		C73.9,85.4,68,79.5,68,72.2z"/>
	<path class="st3" d="M68,72.2c0,7.3,5.9,13.2,13.2,13.2V59C73.9,59,68,64.9,68,72.2z"/>
</g>
</svg>
