<?xml version="1.0" encoding="utf-8"?>
<!-- Generator: Adobe Illustrator 21.1.0, SVG Export Plug-In . SVG Version: 6.00 Build 0)  -->
<svg version="1.1" id="レイヤー_1" xmlns="http://www.w3.org/2000/svg" xmlns:xlink="http://www.w3.org/1999/xlink" x="0px"
	 y="0px" viewBox="0 0 3000 3000" style="enable-background:new 0 0 3000 3000;" xml:space="preserve">
<style type="text/css">
	.st0{fill:#3E3D40;}
</style>
<g>
	<path class="st0" d="M224.2,2029.5l-16.9,134.1v46c0,148.8,3.3,247.3,9.8,295.5c6.6,48.2,13.3,91.3,20.2,129.4
		c6.9,38.2,15.8,70.7,26.7,97.5c10.9,26.9,23.9,52.2,38.9,76c30,47.5,71.6,71.3,124.8,71.3c21.9,0,49.1-11.4,81.6-34.2
		s57.2-34.3,74.1-34.3s35,9.7,54.4,29.1c0,64.4-36.6,110.4-109.7,137.9c-36.3,13.1-75.7,19.7-118.2,19.7s-78.8-8.6-108.8-25.8
		s-55-39.4-75-66.6c-20-27.2-37.5-62.1-52.5-104.6s-26.9-84.7-35.6-126.6c-7.5-42.5-13.8-91.3-18.8-146.3
		c-7.5-92.6-11.6-193.9-12.2-303.9l1.9-229.8c0-73.2,4.4-132.3,13.1-177.3c-3.8-20.6-5.6-40.6-5.6-60c0-78.8,29.4-141.5,88.2-188.1
		s131.3-69.9,217.6-69.9c30.6,0,60.6,8.6,90,25.8c29.4,17.2,44.1,39.9,44.1,68c0,13.8-5.3,24.4-15.9,31.9
		c-10.6,7.5-28.6,11.3-53.9,11.3s-42.7-7.8-52.1-23.4v0.9h-26.3v-4.7c-74.4,0-125.1,23.1-152,69.4c-25,42.5-37.5,115.7-37.5,219.5
		L224.2,2029.5z"/>
	<path class="st0" d="M1213.8,2386.9l-16.9,242.9v8.4c-8.1,35.7-12.2,74.1-12.2,115.4s-7.2,81.1-21.6,119.6s-36.3,72.6-65.7,102.3
		c-29.4,29.7-61.6,44.5-96.6,44.5s-66.9-11.9-95.7-35.6c-28.8-23.8-52.5-54.2-71.3-91.4s-35.3-81.6-49.7-133.2
		c-14.4-51.6-25.5-101.9-33.3-151s-14.2-100.8-19.2-155.2c-7.5-83.2-11.1-147.7-10.8-193.7c0.3-45.9,0.2-85.3-0.5-118.2
		c-0.6-32.8-1.3-62.4-1.9-88.6c0-13.1,0-27.7,0-43.6c0-16,0-33,0-51.1c0.6-36.9,1.7-70,3.3-99.4c1.5-29.4,4.4-61.1,8.4-95.2
		c4.1-34.1,9.2-64.1,15.5-90c6.2-25.9,14.7-51.4,25.3-76.5c11.3-25.6,23.8-46.6,37.5-62.8c31.3-36.3,67.2-54.4,107.9-54.4
		c40.6,0,75.3,7.4,104.1,22c28.8,14.7,53,38.3,72.7,70.8s36.9,64.1,51.6,94.7s26.3,73.3,34.7,128c8.4,54.7,15.2,99,20.2,132.7
		c5,34.4,8.4,83.5,10.3,147.3c2.5,85.7,3.8,152.6,3.8,200.7L1213.8,2386.9L1213.8,2386.9z M1043.6,1683.9
		c-12.8-32.8-28.8-58.2-47.8-76c-19.1-17.8-38-26.7-56.8-26.7s-34.2,6.6-46.4,19.7s-22.5,31.7-31,55.8
		c-8.4,24.1-15.9,49.9-22.5,77.4s-11.6,59.3-15,95.2c-3.4,36-6.4,68.6-8.9,98c-1.9,28.8-3.4,60.7-4.7,95.7
		c-1.3,58.2-2.2,103.5-2.8,136v8.4c0,85.7,6.6,178.1,19.7,277.2c13.1,99.1,26.7,180.3,40.8,243.4c14.1,63.2,33,116.8,56.7,160.9
		c23.8,44.1,50.3,66.1,79.7,66.1c25.6,0,47.2-24.1,64.7-72.2c17.5-48.8,30-108.8,37.5-180.1c12.5-127.6,18.9-217.2,19.2-268.7
		c0.3-51.6,0.3-89.3,0-113c-0.3-23.8-1.3-58.3-2.8-103.7c-1.6-45.3-4.2-87.8-8-127.6c-3.8-39.7-8.6-83.6-14.5-131.8
		c-6-48.1-13.8-91-23.5-128.5C1067.6,1751.9,1056.4,1716.7,1043.6,1683.9z"/>
	<path class="st0" d="M1493.3,2878.4l-4.7,12.2c2.5,7.5,3.8,17.4,3.8,29.6s-5.9,23.3-17.8,33.3s-27.5,15-46.9,15
		c-36.9,0-55.3-40.9-55.3-122.9c0-121.9-6.4-352.3-19.2-691.3c-12.8-338.9-25.8-518.4-38.9-538.4c0.6-66.3,46-101.6,136-106
		c13.7-0.6,32.4-0.9,55.8-0.9s41.9,4.4,55.3,13.1c13.4,8.8,20.2,26.6,20.2,53.5s-17.8,40.3-53.5,40.3l-46.9-1.9
		c-35.6,0-53.5,7.2-53.5,21.6c0,59.4,4.7,146.5,14.1,261.2c9.4,114.8,14.4,199.6,15,254.7c8.1-1.2,19.1-3.8,32.8-7.5
		c32.5-8.8,56.6-13.1,72.2-13.1s28.6,6.1,38.9,18.3s15.5,25.8,15.5,40.8c0,41.9-53.2,62.8-159.5,62.8c0,69.4,6.1,173.5,18.3,312.4
		C1487.2,2703.9,1493.3,2808.3,1493.3,2878.4z"/>
	<path class="st0" d="M1860.1,2878.4l-4.7,12.2c2.5,7.5,3.8,17.4,3.8,29.6s-6,23.3-17.8,33.3c-11.9,10-27.5,15-46.9,15
		c-36.9,0-55.4-40.9-55.4-122.9c0-121.9-6.4-352.3-19.2-691.3c-12.8-338.9-25.8-518.4-38.9-538.4c0.6-66.3,46-101.6,136-106
		c13.7-0.6,32.4-0.9,55.8-0.9s41.9,4.4,55.4,13.1c13.4,8.8,20.2,26.6,20.2,53.5s-17.8,40.3-53.5,40.3l-46.9-1.9
		c-35.6,0-53.5,7.2-53.5,21.6c0,59.4,4.7,146.5,14.1,261.2c9.4,114.8,14.4,199.6,15,254.7c8.1-1.2,19.1-3.8,32.8-7.5
		c32.5-8.8,56.6-13.1,72.2-13.1s28.6,6.1,38.9,18.3s15.5,25.8,15.5,40.8c0,41.9-53.1,62.8-159.5,62.8c0,69.4,6.1,173.5,18.3,312.4
		C1854,2703.9,1860.1,2808.3,1860.1,2878.4z"/>
	<path class="st0" d="M2285.9,2263.1l-47.8-1.9c-18.8,0-31.9,4.7-39.4,14.1V2868c65.7-3.8,101.3-5.6,106.9-5.6
		c73.2,0,109.7,16.9,109.7,50.7v6.6c-8.7,17.5-23.7,31-45,40.3c-21.3,9.4-40,14.7-56.3,15.9c-16.2,1.3-37.2,1.9-62.8,1.9h-60
		c-47.5,0-76.9-9.4-88.2-28.2c-5-8.7-7.5-20.3-7.5-34.7V1798.8c0-21.9-4.4-54.4-13.1-97.5c-8.8-43.1-13.1-76-13.1-98.5v-6.6
		c21.3-35,37.2-57.5,47.8-67.5l142.6-16.9c19.4,0,38.9,5.8,58.6,17.4c19.7,11.6,29.5,26.7,29.5,45.5c0,38.1-29.1,57.2-87.2,57.2
		l-55.4-1.9c-9.4,0-16.2,0.3-20.6,0.9l15,317c0,25.6-1.6,63-4.7,112.1c-3.1,49.1-4.7,84.9-4.7,107.4c6.9-1.2,16.3-3.4,28.2-6.6
		c26.3-6.9,46.7-10.3,61.4-10.3s27.8,5.3,39.4,15.9c11.6,10.6,17.3,23.4,17.3,38.5s-4.7,28.5-14.1,40.3
		C2313.1,2257.1,2300.9,2263.1,2285.9,2263.1z"/>
	<path class="st0" d="M2714.6,2263.1l-47.8-1.9c-18.8,0-31.9,4.7-39.4,14.1V2868c65.6-3.8,101.3-5.6,106.9-5.6
		c73.2,0,109.8,16.9,109.8,50.7v6.6c-8.8,17.5-23.8,31-45,40.3c-21.3,9.4-40,14.7-56.3,15.9c-16.3,1.3-37.2,1.9-62.8,1.9h-60
		c-47.5,0-76.9-9.4-88.2-28.2c-5-8.7-7.5-20.3-7.5-34.7V1798.8c0-21.9-4.4-54.4-13.1-97.5c-8.8-43.1-13.2-76-13.2-98.5v-6.6
		c21.3-35,37.2-57.5,47.8-67.5l142.6-16.9c19.4,0,38.9,5.8,58.6,17.4c19.7,11.6,29.6,26.7,29.6,45.5c0,38.1-29.1,57.2-87.2,57.2
		l-55.3-1.9c-9.4,0-16.3,0.3-20.6,0.9l15,317c0,25.6-1.6,63-4.7,112.1c-3.1,49.1-4.7,84.9-4.7,107.4c6.9-1.2,16.3-3.4,28.1-6.6
		c26.3-6.9,46.7-10.3,61.4-10.3s27.8,5.3,39.4,15.9c11.6,10.6,17.4,23.4,17.4,38.5s-4.7,28.5-14.1,40.3
		C2741.8,2257.1,2729.6,2263.1,2714.6,2263.1z"/>
</g>
<g>
	<path class="st0" d="M118,418.5l11.1-298v-10.3c0-53.9,11.9-80.8,35.7-80.8c21.7,0,50.7,50.2,87.2,150.6
		c66.6,182.3,146.3,483.2,239.3,902.7l1.6,7.9l6.3-565.8V44.4c6.3-26.9,24-40.4,53.1-40.4c29.1,0,43.6,21.1,43.6,63.4v9.5
		c-6.3,13.2-9.5,29.1-9.5,47.6l-10.3,599.9v496.1c0,16.4-4.5,32.5-13.5,48.4s-20.1,23.8-33.3,23.8c-22.7,0-67.1-111.3-133.1-334
		S264.9,496.6,200.5,240.3v532.6c0,51.8,3.8,128.9,11.5,231.4c7.6,102.5,11.5,179.6,11.5,231.4c0,10.1-6.1,18.4-18.2,25
		c-12.2,6.6-27.6,9.9-46.4,9.9s-28.1-8.4-28.1-25.4l7.9-116.5c0-56-3.4-146.9-10.3-272.6c-7-125.9-10.4-202.8-10.4-230.8V418.5z"/>
	<path class="st0" d="M1110.2,779.1L1096,984.3v7.1c-6.9,30.1-10.3,62.6-10.3,97.5s-6.1,68.5-18.2,101
		c-12.2,32.5-30.6,61.3-55.5,86.4c-24.8,25.1-52,37.6-81.6,37.6s-56.5-10-80.8-30.1s-44.4-45.8-60.2-77.3
		c-15.9-31.4-29.9-69-42-112.6c-12.2-43.6-21.5-86.1-28.1-127.6s-12-85.2-16.2-131.2c-6.3-70.3-9.4-124.8-9.1-163.7
		c0.3-38.8,0.1-72.1-0.4-99.9c-0.5-27.7-1.1-52.7-1.6-74.9c0-11.1,0-23.4,0-36.8c0-13.5,0-27.9,0-43.2c0.5-31.2,1.4-59.2,2.8-84
		c1.3-24.8,3.7-51.6,7.1-80.4c3.4-28.8,7.8-54.2,13.1-76.1s12.4-43.5,21.4-64.6c9.5-21.7,20.1-39.4,31.7-53.1
		c26.4-30.6,56.8-46,91.1-46s63.7,6.2,88,18.6s44.8,32.4,61.4,59.8c16.6,27.5,31.2,54.2,43.6,80c12.4,25.9,22.2,62,29.3,108.2
		c7.1,46.2,12.8,83.6,17,112.1c4.2,29.1,7.1,70.5,8.7,124.4c2.1,72.4,3.2,128.9,3.2,169.6v94H1110.2z M966.4,185.1
		c-10.8-27.7-24.3-49.1-40.4-64.2c-16.1-15.1-32.1-22.6-48-22.6s-28.9,5.5-39.2,16.6s-19,26.8-26.2,47.2
		c-7.1,20.3-13.5,42.1-19,65.4s-9.8,50.1-12.7,80.4c-2.9,30.4-5.4,58-7.5,82.8c-1.6,24.3-2.9,51.3-4,80.8
		c-1.1,49.1-1.9,87.4-2.4,114.9v7.1c0,72.4,5.5,150.5,16.6,234.2c11.1,83.8,22.6,152.3,34.5,205.7s27.9,98.7,47.9,135.9
		c20.1,37.3,42.5,55.9,67.4,55.9c21.7,0,39.9-20.3,54.7-61c14.8-41.2,25.4-91.9,31.7-152.2c10.6-107.8,16-183.5,16.2-227.1
		c0.3-43.6,0.3-75.4,0-95.5s-1.1-49.3-2.4-87.6s-3.6-74.2-6.7-107.8c-3.2-33.5-7.3-70.7-12.3-111.3c-5-40.7-11.6-76.9-19.8-108.6
		C986.7,242.5,977.2,212.8,966.4,185.1z"/>
	<path class="st0" d="M1229.9,901.1l-5.5-628.5c0-70.3,0.8-140.3,2.4-210l45.2-25.4c32.2,2.1,68.9,88.2,110.2,258.4
		c33.3,139,60.2,263.8,80.8,374.5c20.6,110.7,32,170.8,34.1,180.3c7.4-34.9,21.1-97.2,41.2-187s35.1-159.6,45.2-209.2
		c29.6-145.3,47.8-274.5,54.7-387.5v-9.5c2.1-13.7,8.7-24.8,19.8-33.3c11.1-8.4,22.7-12.7,34.9-12.7c12.1,0,22.1,4.4,29.7,13.1
		c7.7,8.7,11.5,18.1,11.5,28.1c0,129.4,4.9,323.3,14.7,581.7c9.8,258.4,14.7,452.3,14.7,581.7c0,25.9-6.9,48.3-20.6,67.4
		c-13.7,19-26.9,28.5-39.6,28.5c-26.4,0-39.6-21.4-39.6-64.2l-6.3-683.1V482c-7.4,41.7-24,114.8-49.9,219.1s-42.5,184.3-49.9,239.7
		V951c-1.1,4.2-2.6,14.3-4.8,30.1c-2.1,15.9-4.4,28.9-6.7,39.2c-2.4,10.3-5.9,21.8-10.7,34.5c-10,25.4-26.7,38-49.9,38
		c-38.6,0-57.9-50.4-57.9-151.4c0-99.9-24.3-239.6-72.9-419.2c-24.3-89.8-39.9-150.6-46.8-182.3c-2.1,86.7-3.2,151.9-3.2,195.7
		l13.5,667.3c0,23.3-8.2,43.6-24.6,61c-28,0-46.9-9-56.7-26.9c-9.8-18-14.7-42.3-14.7-72.9L1229.9,901.1z"/>
	<path class="st0" d="M2234.8,1268c-33.3,0-49.9-14-49.9-42v-211.6c-15.3-10.6-42.9-19.5-82.8-26.9c-39.9-7.4-75.4-12.2-106.6-14.3
		c-11.1,19-20.2,46.5-27.3,82.4c-7.1,35.9-14.5,72.1-22.2,108.6c-7.7,36.4-17.8,65.2-30.5,86.4c-42.3,0-66-10.8-71.3-32.5
		c14.8-21.1,38.8-129.2,72.1-324.1c33.3-195,60.6-347.5,82-457.7s44.5-202.8,69.4-277.8c24.8-75,48.6-112.5,71.3-112.5
		s40.2,4.8,52.3,14.3c0,38.6,10.6,142.9,31.7,313c21.1,170.1,31.7,280.2,31.7,330.1s5.7,132.9,17,248.8c11.3,116,17,203,17,261.1
		C2288.7,1249.8,2270.7,1268,2234.8,1268z M2166.6,738.3c-9.5-95.9-18.1-187.3-25.8-274.2c-7.6-86.9-11.5-139.5-11.5-157.7
		s0.3-28.7,0.8-31.3c-16.9,17.4-41.3,114.4-73.3,290.8c-32,176.5-49,288.2-51.1,335.2c44.9,12.2,82.6,18.2,112.9,18.2
		c30.4,0,51.9-1.6,64.6-4.8C2181.7,892.9,2176.2,834.1,2166.6,738.3z"/>
	<path class="st0" d="M2803,671.3l4,34.1c0.5,76.6-19.8,167-61,271c-46.5,118.9-101.4,203.2-164.8,252.8
		c-36,28.5-72.9,43.1-111,43.6c-20.1,0-38.3-4.6-54.7-13.9c-16.4-9.2-24.6-23.1-24.6-41.6c23.8-24.8,35.7-88.5,35.7-191
		c0-60.2-5-149.8-15.1-268.7s-15-207.9-15-267.1l4.8-177.5c0-28.5-5.9-67-17.8-115.3c-11.9-48.3-17.8-82.5-17.8-102.6
		c0-37.5,41.5-56.3,124.4-56.3h24.6c110.4,0,190.5,61.8,240.1,185.4c34.9,86.1,52.3,205,52.3,356.6v75.3
		C2804.3,661,2803,666,2803,671.3z M2504.3,1023.2v155.3c40.7-26.4,76.1-63.3,106.2-110.5c30.1-47.3,53.1-98.9,69-154.9
		c29.6-107.2,44.4-214.2,44.4-321c0-122.6-15.3-219.3-46-290.1c-31.2-72.9-69.7-121-115.7-144.2c-28.5-14.8-60.8-21.9-96.7-21.4v1.6
		c0,97.7,6.5,244.9,19.4,441.4C2497.8,775.9,2504.3,923.8,2504.3,1023.2z"/>
</g>
</svg>
